<?xml version="1.0" encoding="UTF-8"?>
<svg width="200" height="200" version="1.1" viewBox="0 0 200 200" xmlns="http://www.w3.org/2000/svg">
 <g transform="matrix(1.1494 0 0 1.1494 -14.942 -14.942)">
  <circle cx="100" cy="100" r="87" fill="none" stroke="#6366f1" stroke-width="12"/>
  <g fill="#6366f1">
   <path d="m100 40c-33.137 0-60 26.863-60 60s26.863 60 60 60 60-26.863 60-60-26.863-60-60-60zm0 10c27.614 0 50 22.386 50 50s-22.386 50-50 50-50-22.386-50-50 22.386-50 50-50z"/>
   <path d="m100 70c-16.569 0-30 13.431-30 30s13.431 30 30 30 30-13.431 30-30-13.431-30-30-30zm0 10c11.046 0 20 8.954 20 20s-8.954 20-20 20-20-8.954-20-20 8.954-20 20-20z"/>
   <circle cx="100" cy="100" r="10"/>
  </g>
 </g>
</svg>